ffmpeg started on 2025-06-27 at 10:31:56
Report written to "D:\Convert\FFMetrics\reports\ssim_report-6.txt"
Log level: 32
Command line:
ffmpeg -hide_banner -nostdin -i "G:\\\xc0\xed\xe8\xec\xe5\\[\xd2\xee\xef-4]\\\xd2\xee\xea\xe8\xe9\xf1\xea\xe8\xe9 \xc3\xf3\xeb\xfc\\\xd2\xc2-4\\Tokyo_Ghoul_Re_[22]_[AniLibria_TV]_[HDTVRip_720p]_HEVC.mkv" -i "G:\\\xc0\xed\xe8\xec\xe5\\[\xd2\xee\xef-4]\\\xd2\xee\xea\xe8\xe9\xf1\xea\xe8\xe9 \xc3\xf3\xeb\xfc\\\xd2\xc2-4\\Tokyo_Ghoul_Re_[22]_[AniLibria_TV]_[HDTVRip_720p].mkv" -lavfi "[0:v]settb=AVTB,setpts=PTS-STARTPTS,format=pix_fmts=yuv420p10,fps=24000/1001,scale=1280:720:flags=bicubic[main];[1:v]settb=AVTB,setpts=PTS-STARTPTS,format=pix_fmts=yuv420p,fps=24000/1001,scale=1280:720:flags=bicubic[ref];[main][ref]ssim=eof_action=endall:stats_file='D\\:/Convert/FFMetrics/logs/ssim_logfile-6.txt'" -f null -
Input #0, matroska,webm, from 'G:\Аниме\[Топ-4]\Токийский Гуль\ТВ-4\Tokyo_Ghoul_Re_[22]_[AniLibria_TV]_[HDTVRip_720p]_HEVC.mkv':
  Metadata:
    ENCODER         : Lavf61.7.100
  Duration: 00:24:30.10, start: -0.021000, bitrate: 661 kb/s
  Stream #0:0(jpn): Video: hevc (Main 10), yuv420p10le(tv, bt709, progressive), 1280x720 [SAR 1:1 DAR 16:9], 23.98 fps, 23.98 tbr, 1k tbn (default)
      Metadata:
        ENCODER         : Lavc61.19.100 libx265
        BPS             : 463450
        DURATION        : 00:24:30.010708333
        NUMBER_OF_FRAMES: 35245
        NUMBER_OF_BYTES : 85159612
        _STATISTICS_WRITING_APP: mkvpropedit v66.0.0 ('Josie') 64-bit
        _STATISTICS_WRITING_DATE_UTC: 2025-06-26 16:32:54
        _STATISTICS_TAGS: BPS DURATION NUMBER_OF_FRAMES NUMBER_OF_BYTES
  Stream #0:1(rus): Audio: aac (LC), 48000 Hz, stereo, fltp (default) (forced)
      Metadata:
        title           : AniLibria.TV
        ENCODER         : Lavc61.19.100 aac
        BPS             : 193618
        DURATION        : 00:24:30.080000000
        NUMBER_OF_FRAMES: 68911
        NUMBER_OF_BYTES : 35579401
        _STATISTICS_WRITING_APP: mkvpropedit v66.0.0 ('Josie') 64-bit
        _STATISTICS_WRITING_DATE_UTC: 2025-06-26 16:32:54
        _STATISTICS_TAGS: BPS DURATION NUMBER_OF_FRAMES NUMBER_OF_BYTES
  Stream #0:2(rus): Subtitle: ass (ssa) (default) (forced)
      Metadata:
        title           : Надписи
        BPS             : 13
        DURATION        : 00:21:27.840000000
        NUMBER_OF_FRAMES: 15
        NUMBER_OF_BYTES : 2165
        _STATISTICS_WRITING_APP: mkvpropedit v66.0.0 ('Josie') 64-bit
        _STATISTICS_WRITING_DATE_UTC: 2025-06-26 16:32:54
        _STATISTICS_TAGS: BPS DURATION NUMBER_OF_FRAMES NUMBER_OF_BYTES
  Stream #0:3(rus): Subtitle: ass (ssa)
      Metadata:
        title           : Полные
        BPS             : 98
        DURATION        : 00:23:51.080000000
        NUMBER_OF_FRAMES: 259
        NUMBER_OF_BYTES : 17535
        _STATISTICS_WRITING_APP: mkvpropedit v66.0.0 ('Josie') 64-bit
        _STATISTICS_WRITING_DATE_UTC: 2025-06-26 16:32:54
        _STATISTICS_TAGS: BPS DURATION NUMBER_OF_FRAMES NUMBER_OF_BYTES
[matroska,webm @ 000001c893fe8b40] Could not find codec parameters for stream 18 (Attachment: none): unknown codec
Consider increasing the value for the 'analyzeduration' (0) and 'probesize' (5000000) options
Input #1, matroska,webm, from 'G:\Аниме\[Топ-4]\Токийский Гуль\ТВ-4\Tokyo_Ghoul_Re_[22]_[AniLibria_TV]_[HDTVRip_720p].mkv':
  Metadata:
    encoder         : libebml v1.4.2 + libmatroska v1.6.4
    creation_time   : 2024-12-27T09:50:36.000000Z
  Duration: 00:24:30.08, start: 0.000000, bitrate: 1822 kb/s
  Stream #1:0(jpn): Video: h264 (Main), yuv420p(tv, bt709, progressive), 1280x720, SAR 1:1 DAR 16:9, 23.98 fps, 23.98 tbr, 1k tbn (default)
      Metadata:
        BPS             : 1616325
        DURATION        : 00:24:30.011000000
        NUMBER_OF_FRAMES: 35245
        NUMBER_OF_BYTES : 297001968
        _STATISTICS_WRITING_APP: mkvmerge v66.0.0 ('Josie') 64-bit
        _STATISTICS_WRITING_DATE_UTC: 2024-12-27 09:50:36
        _STATISTICS_TAGS: BPS DURATION NUMBER_OF_FRAMES NUMBER_OF_BYTES
  Stream #1:1(rus): Audio: aac (LC), 48000 Hz, stereo, fltp (default) (forced)
      Metadata:
        title           : AniLibria.TV
        BPS             : 192091
        DURATION        : 00:24:30.080000000
        NUMBER_OF_FRAMES: 68910
        NUMBER_OF_BYTES : 35298755
        _STATISTICS_WRITING_APP: mkvmerge v66.0.0 ('Josie') 64-bit
        _STATISTICS_WRITING_DATE_UTC: 2024-12-27 09:50:36
        _STATISTICS_TAGS: BPS DURATION NUMBER_OF_FRAMES NUMBER_OF_BYTES
  Stream #1:2(rus): Subtitle: ass (ssa) (default) (forced)
      Metadata:
        title           : Надписи
        BPS             : 13
        DURATION        : 00:21:27.840000000
        NUMBER_OF_FRAMES: 15
        NUMBER_OF_BYTES : 2165
        _STATISTICS_WRITING_APP: mkvmerge v66.0.0 ('Josie') 64-bit
        _STATISTICS_WRITING_DATE_UTC: 2024-12-27 09:50:36
        _STATISTICS_TAGS: BPS DURATION NUMBER_OF_FRAMES NUMBER_OF_BYTES
  Stream #1:3(rus): Subtitle: ass (ssa)
      Metadata:
        title           : Полные
        BPS             : 98
        DURATION        : 00:23:51.080000000
        NUMBER_OF_FRAMES: 259
        NUMBER_OF_BYTES : 17535
        _STATISTICS_WRITING_APP: mkvmerge v66.0.0 ('Josie') 64-bit
        _STATISTICS_WRITING_DATE_UTC: 2024-12-27 09:50:36
        _STATISTICS_TAGS: BPS DURATION NUMBER_OF_FRAMES NUMBER_OF_BYTES
  Stream #1:4: Attachment: ttf
      Metadata:
        filename        : 10322__2.ttf
        mimetype        : application/x-truetype-font
  Stream #1:5: Attachment: ttf
      Metadata:
        filename        : 10352__0.ttf
        mimetype        : application/x-truetype-font
  Stream #1:6: Attachment: ttf
      Metadata:
        filename        : Aero Matics Display Bold Italic.ttf
        mimetype        : application/x-truetype-font
  Stream #1:7: Attachment: ttf
      Metadata:
        filename        : Aero Matics Display Bold.ttf
        mimetype        : application/x-truetype-font
  Stream #1:8: Attachment: ttf
      Metadata:
        filename        : Aero Matics Display Italic.ttf
        mimetype        : application/x-truetype-font
  Stream #1:9: Attachment: ttf
      Metadata:
        filename        : Aero Matics Display Light Italic.ttf
        mimetype        : application/x-truetype-font
  Stream #1:10: Attachment: ttf
      Metadata:
        filename        : Aero Matics Display Light.ttf
        mimetype        : application/x-truetype-font
  Stream #1:11: Attachment: ttf
      Metadata:
        filename        : Aero_Matics_Display_Regular.ttf
        mimetype        : application/x-truetype-font
  Stream #1:12: Attachment: ttf
      Metadata:
        filename        : BenchNine-Regular.ttf
        mimetype        : application/x-truetype-font
  Stream #1:13: Attachment: ttf
      Metadata:
        filename        : ObelixPro (Regular).ttf
        mimetype        : application/x-truetype-font
  Stream #1:14: Attachment: ttf
      Metadata:
        filename        : OHCRBRG.TTF
        mimetype        : application/x-truetype-font
  Stream #1:15: Attachment: ttf
      Metadata:
        filename        : OpenSanA.ttf
        mimetype        : application/x-truetype-font
  Stream #1:16: Attachment: ttf
      Metadata:
        filename        : Passing Notes.ttf
        mimetype        : application/x-truetype-font
  Stream #1:17: Attachment: ttf
      Metadata:
        filename        : REDOCTOB.otf
        mimetype        : application/x-truetype-font
  Stream #1:18: Attachment: none
      Metadata:
        filename        : simsun_0.ttc
        mimetype        : application/octet-stream
  Stream #1:19: Attachment: ttf
      Metadata:
        filename        : Snowstorm.ttf
        mimetype        : application/x-truetype-font
  Stream #1:20: Attachment: ttf
      Metadata:
        filename        : TEMPSITC.TTF
        mimetype        : application/x-truetype-font
  Stream #1:21: Attachment: ttf
      Metadata:
        filename        : TrajanPro3-Bold.otf
        mimetype        : application/x-truetype-font
  Stream #1:22: Attachment: ttf
      Metadata:
        filename        : TrajanPro3-Regular.otf
        mimetype        : application/x-truetype-font
  Stream #1:23: Attachment: ttf
      Metadata:
        filename        : v_BloodyMurder BB_v1.0.ttf
        mimetype        : application/x-truetype-font
  Stream #1:24: Attachment: ttf
      Metadata:
        filename        : v_CCTimSale_v1.11.ttf
        mimetype        : application/x-truetype-font
  Stream #1:25: Attachment: ttf
      Metadata:
        filename        : v_HolyMackerelli_v1.9.ttf
        mimetype        : application/x-truetype-font
  Stream #1:26: Attachment: ttf
      Metadata:
        filename        : v_StraightJacketBB_v1.1.ttf
        mimetype        : application/x-truetype-font
  Stream #1:27: Attachment: ttf
      Metadata:
        filename        : XENI.TTF
        mimetype        : application/x-truetype-font
Stream mapping:
  Stream #0:0 (hevc) -> settb:default
  Stream #1:0 (h264) -> settb:default
  ssim:default -> Stream #0:0 (wrapped_avframe)
  Stream #0:1 -> #0:1 (aac (native) -> pcm_s16le (native))
Output #0, null, to 'pipe:':
  Metadata:
    encoder         : Lavf61.7.100
  Stream #0:0: Video: wrapped_avframe, yuv420p10le(tv, bt709, progressive), 1280x720 [SAR 1:1 DAR 16:9], q=2-31, 200 kb/s, 23.98 fps, 23.98 tbn
      Metadata:
        encoder         : Lavc61.19.100 wrapped_avframe
  Stream #0:1(rus): Audio: pcm_s16le, 48000 Hz, stereo, s16, 1536 kb/s (default) (forced)
      Metadata:
        title           : AniLibria.TV
        _STATISTICS_TAGS: BPS DURATION NUMBER_OF_FRAMES NUMBER_OF_BYTES
        BPS             : 193618
        DURATION        : 00:24:30.080000000
        NUMBER_OF_FRAMES: 68911
        NUMBER_OF_BYTES : 35579401
        _STATISTICS_WRITING_APP: mkvpropedit v66.0.0 ('Josie') 64-bit
        _STATISTICS_WRITING_DATE_UTC: 2025-06-26 16:32:54
        encoder         : Lavc61.19.100 pcm_s16le
frame=  535 fps=0.0 q=-0.0 size=N/A time=00:00:22.31 bitrate=N/A speed=42.8x    frame=  902 fps=872 q=-0.0 size=N/A time=00:00:37.62 bitrate=N/A speed=36.4x    frame= 1235 fps=801 q=-0.0 size=N/A time=00:00:51.50 bitrate=N/A speed=33.4x    frame= 1710 fps=829 q=-0.0 size=N/A time=00:01:11.32 bitrate=N/A speed=34.6x    frame= 2188 fps=850 q=-0.0 size=N/A time=00:01:31.25 bitrate=N/A speed=35.5x    frame= 2643 fps=853 q=-0.0 size=N/A time=00:01:50.23 bitrate=N/A speed=35.6x    frame= 3106 fps=860 q=-0.0 size=N/A time=00:02:09.54 bitrate=N/A speed=35.9x    frame= 3592 fps=872 q=-0.0 size=N/A time=00:02:29.81 bitrate=N/A speed=36.4x    frame= 4083 fps=878 q=-0.0 size=N/A time=00:02:50.29 bitrate=N/A speed=36.6x    frame= 4513 fps=875 q=-0.0 size=N/A time=00:03:08.22 bitrate=N/A speed=36.5x    frame= 4815 fps=850 q=-0.0 size=N/A time=00:03:20.82 bitrate=N/A speed=35.4x    frame= 5255 fps=849 q=-0.0 size=N/A time=00:03:39.17 bitrate=N/A speed=35.4x    frame= 5723 fps=854 q=-0.0 size=N/A time=00:03:58.69 bitrate=N/A speed=35.6x    frame= 6240 fps=863 q=-0.0 size=N/A time=00:04:20.26 bitrate=N/A speed=  36x    frame= 6726 fps=869 q=-0.0 size=N/A time=00:04:40.53 bitrate=N/A speed=36.3x    frame= 7301 fps=885 q=-0.0 size=N/A time=00:05:04.51 bitrate=N/A speed=36.9x    frame= 7768 fps=885 q=-0.0 size=N/A time=00:05:23.99 bitrate=N/A speed=36.9x    frame= 8260 fps=890 q=-0.0 size=N/A time=00:05:44.51 bitrate=N/A speed=37.1x    frame= 8758 fps=894 q=-0.0 size=N/A time=00:06:05.28 bitrate=N/A speed=37.3x    frame= 9239 fps=895 q=-0.0 size=N/A time=00:06:25.34 bitrate=N/A speed=37.3x    frame= 9671 fps=893 q=-0.0 size=N/A time=00:06:43.36 bitrate=N/A speed=37.2x    frame=10172 fps=897 q=-0.0 size=N/A time=00:07:04.25 bitrate=N/A speed=37.4x    frame=10632 fps=897 q=-0.0 size=N/A time=00:07:23.44 bitrate=N/A speed=37.4x    frame=11111 fps=898 q=-0.0 size=N/A time=00:07:43.42 bitrate=N/A speed=37.4x    frame=11649 fps=903 q=-0.0 size=N/A time=00:08:05.86 bitrate=N/A speed=37.7x    frame=12178 fps=907 q=-0.0 size=N/A time=00:08:27.92 bitrate=N/A speed=37.8x    frame=12704 fps=912 q=-0.0 size=N/A time=00:08:49.86 bitrate=N/A speed=  38x    frame=13250 fps=916 q=-0.0 size=N/A time=00:09:12.63 bitrate=N/A speed=38.2x    frame=13689 fps=914 q=-0.0 size=N/A time=00:09:30.94 bitrate=N/A speed=38.1x    frame=14203 fps=917 q=-0.0 size=N/A time=00:09:52.38 bitrate=N/A speed=38.3x    frame=14731 fps=921 q=-0.0 size=N/A time=00:10:14.40 bitrate=N/A speed=38.4x    frame=15189 fps=919 q=-0.0 size=N/A time=00:10:33.50 bitrate=N/A speed=38.3x    frame=15665 fps=920 q=-0.0 size=N/A time=00:10:53.36 bitrate=N/A speed=38.4x    frame=16154 fps=920 q=-0.0 size=N/A time=00:11:13.75 bitrate=N/A speed=38.4x    frame=16714 fps=925 q=-0.0 size=N/A time=00:11:37.11 bitrate=N/A speed=38.6x    frame=17202 fps=925 q=-0.0 size=N/A time=00:11:57.46 bitrate=N/A speed=38.6x    frame=17601 fps=922 q=-0.0 size=N/A time=00:12:14.10 bitrate=N/A speed=38.4x    frame=18029 fps=919 q=-0.0 size=N/A time=00:12:31.95 bitrate=N/A speed=38.3x    frame=18533 fps=921 q=-0.0 size=N/A time=00:12:52.98 bitrate=N/A speed=38.4x    frame=19090 fps=925 q=-0.0 size=N/A time=00:13:16.21 bitrate=N/A speed=38.6x    frame=19577 fps=925 q=-0.0 size=N/A time=00:13:36.52 bitrate=N/A speed=38.6x    frame=20096 fps=927 q=-0.0 size=N/A time=00:13:58.17 bitrate=N/A speed=38.7x    frame=20630 fps=930 q=-0.0 size=N/A time=00:14:20.44 bitrate=N/A speed=38.8x    frame=21211 fps=934 q=-0.0 size=N/A time=00:14:44.67 bitrate=N/A speed=  39x    frame=21765 fps=937 q=-0.0 size=N/A time=00:15:07.78 bitrate=N/A speed=39.1x    frame=22286 fps=939 q=-0.0 size=N/A time=00:15:29.51 bitrate=N/A speed=39.1x    frame=22820 fps=941 q=-0.0 size=N/A time=00:15:51.78 bitrate=N/A speed=39.2x    frame=23165 fps=935 q=-0.0 size=N/A time=00:16:06.17 bitrate=N/A speed=  39x    frame=23489 fps=929 q=-0.0 size=N/A time=00:16:19.68 bitrate=N/A speed=38.7x    frame=23943 fps=928 q=-0.0 size=N/A time=00:16:38.62 bitrate=N/A speed=38.7x    frame=24455 fps=929 q=-0.0 size=N/A time=00:16:59.97 bitrate=N/A speed=38.8x    frame=24919 fps=929 q=-0.0 size=N/A time=00:17:19.32 bitrate=N/A speed=38.7x    frame=25390 fps=928 q=-0.0 size=N/A time=00:17:38.97 bitrate=N/A speed=38.7x    frame=25857 fps=928 q=-0.0 size=N/A time=00:17:58.45 bitrate=N/A speed=38.7x    frame=26269 fps=925 q=-0.0 size=N/A time=00:18:15.63 bitrate=N/A speed=38.6x    frame=26714 fps=925 q=-0.0 size=N/A time=00:18:34.19 bitrate=N/A speed=38.6x    frame=27163 fps=924 q=-0.0 size=N/A time=00:18:52.92 bitrate=N/A speed=38.5x    frame=27660 fps=924 q=-0.0 size=N/A time=00:19:13.65 bitrate=N/A speed=38.5x    frame=28024 fps=920 q=-0.0 size=N/A time=00:19:28.83 bitrate=N/A speed=38.4x    frame=28388 fps=917 q=-0.0 size=N/A time=00:19:44.01 bitrate=N/A speed=38.2x    frame=28858 fps=916 q=-0.0 size=N/A time=00:20:03.61 bitrate=N/A speed=38.2x    frame=29338 fps=917 q=-0.0 size=N/A time=00:20:23.63 bitrate=N/A speed=38.2x    frame=29875 fps=919 q=-0.0 size=N/A time=00:20:46.03 bitrate=N/A speed=38.3x    frame=30451 fps=922 q=-0.0 size=N/A time=00:21:10.06 bitrate=N/A speed=38.4x    frame=31006 fps=924 q=-0.0 size=N/A time=00:21:33.20 bitrate=N/A speed=38.5x    frame=31550 fps=926 q=-0.0 size=N/A time=00:21:55.89 bitrate=N/A speed=38.6x    frame=32104 fps=928 q=-0.0 size=N/A time=00:22:19.00 bitrate=N/A speed=38.7x    frame=32519 fps=927 q=-0.0 size=N/A time=00:22:36.31 bitrate=N/A speed=38.6x    frame=32919 fps=925 q=-0.0 size=N/A time=00:22:52.99 bitrate=N/A speed=38.6x    frame=33315 fps=922 q=-0.0 size=N/A time=00:23:09.51 bitrate=N/A speed=38.5x    frame=33739 fps=921 q=-0.0 size=N/A time=00:23:27.19 bitrate=N/A speed=38.4x    frame=34123 fps=918 q=-0.0 size=N/A time=00:23:43.21 bitrate=N/A speed=38.3x    frame=34641 fps=919 q=-0.0 size=N/A time=00:24:04.81 bitrate=N/A speed=38.3x    frame=35210 fps=922 q=-0.0 size=N/A time=00:24:28.55 bitrate=N/A speed=38.5x    [Parsed_ssim_10 @ 000001c89fecca00] SSIM Y:0.990250 (20.110046) U:0.992194 (21.075735) V:0.992652 (21.338462) All:0.990975 (20.445297)
[out#0/null @ 000001c8948de4c0] video:15144KiB audio:275644KiB subtitle:0KiB other streams:0KiB global headers:0KiB muxing overhead: unknown
frame=35245 fps=922 q=-0.0 Lsize=N/A time=00:24:30.01 bitrate=N/A speed=38.5x    
